<?xml version="1.0" encoding="utf-8"?>
<!-- Generator: Adobe Illustrator 16.0.0, SVG Export Plug-In . SVG Version: 6.00 Build 0)  -->
<!DOCTYPE svg PUBLIC "-//W3C//DTD SVG 1.1//EN" "http://www.w3.org/Graphics/SVG/1.1/DTD/svg11.dtd">
<svg version="1.1" id="Layer_1" xmlns="http://www.w3.org/2000/svg" xmlns:xlink="http://www.w3.org/1999/xlink" x="0px" y="0px"
	 width="128px" height="128px" viewBox="0 0 128 128" enable-background="new 0 0 128 128" xml:space="preserve">
<g>
	<g>
		<g>
			<path fill="#282D33" d="M73.375,128H52.47l-1.348-16.365c-4.717-1.296-9.18-3.285-13.301-5.931L25.83,115.958l-14.76-14.926
				l10.488-12.529c-2.435-4.293-4.199-8.9-5.261-13.733L0.652,73.45V52.374l16.193-1.367c1.279-4.77,3.252-9.289,5.88-13.468
				L12.588,25.43l14.768-14.923l12.404,10.61c4.225-2.446,8.773-4.224,13.56-5.301L54.625,0h20.904l1.348,16.367
				c4.717,1.295,9.18,3.285,13.302,5.93l11.99-10.25l14.76,14.921l-10.489,12.529c2.429,4.286,4.192,8.894,5.258,13.734l15.65,1.314
				V75.63l-16.195,1.361c-1.285,4.778-3.258,9.297-5.881,13.468l10.14,12.11l-14.769,14.923l-12.408-10.608
				c-4.231,2.448-8.78,4.227-13.557,5.3L73.375,128z M56.154,124h13.537l1.246-15.146l1.491-0.286
				c5.326-1.024,10.358-2.988,14.96-5.838l1.242-0.77l11.785,10.075l9.591-9.69l-9.716-11.604l0.838-1.247
				c3.038-4.521,5.222-9.514,6.49-14.841l0.335-1.408l15.394-1.293V58.224l-14.993-1.259l-0.282-1.495
				c-1.017-5.392-2.962-10.486-5.781-15.141l-0.74-1.223l9.974-11.914l-9.584-9.689l-11.477,9.812l-1.265-0.869
				c-4.473-3.072-9.409-5.277-14.672-6.556l-1.402-0.341L71.846,4H58.309l-1.251,15.146l-1.49,0.287
				c-5.338,1.028-10.371,2.992-14.96,5.839l-1.243,0.771L27.582,15.965l-9.589,9.689l9.714,11.603l-0.838,1.247
				c-3.045,4.531-5.228,9.523-6.488,14.837l-0.334,1.41L4.652,56.05v13.722l14.991,1.265l0.281,1.496
				c1.01,5.38,2.955,10.473,5.781,15.138l0.741,1.223l-9.973,11.914l9.584,9.691l11.479-9.814l1.266,0.869
				c4.471,3.072,9.405,5.278,14.668,6.558l1.403,0.341L56.154,124z"/>
		</g>
		<g>
			<path fill="#282D33" d="M64,92.173c-16.022,0-29.059-13.164-29.059-29.345S47.978,33.484,64,33.484v4
				c-13.817,0-25.059,11.369-25.059,25.344c0,13.976,11.241,25.345,25.059,25.345c13.815,0,25.055-11.369,25.055-25.345h4
				C93.055,79.009,80.021,92.173,64,92.173z"/>
		</g>
		<g>
			<polygon fill="#282D33" points="57.199,48.042 54.356,45.228 62.294,37.207 54.355,29.183 57.199,26.369 67.921,37.208 			"/>
		</g>
	</g>
</g>
</svg>
