<svg xmlns="http://www.w3.org/2000/svg" width="48.002" height="48.001" viewBox="0 0 48.002 48.001">
  <g>
    <path d="M47.273,0H.727A.728.728,0,0,0,0,.728V47.274A.728.728,0,0,0,.727,48H17.211a.728.728,0,1,0,0-1.455H1.455V11.151H46.546V46.545H39.515a.728.728,0,0,0,0,1.455h7.759A.729.729,0,0,0,48,47.273V.727A.729.729,0,0,0,47.273,0Zm-.727,9.7H1.455V1.454H46.546Z" fill="#1a171b"/>
    <path d="M42.425,6.3a.729.729,0,0,0,.728-.727.725.725,0,0,0-.214-.514.752.752,0,0,0-1.028,0,.724.724,0,0,0-.213.514.743.743,0,0,0,.213.514A.728.728,0,0,0,42.425,6.3Z" fill="#1a171b"/>
    <path d="M37.411,6.3a.728.728,0,1,0-.728-.728A.727.727,0,0,0,37.411,6.3Z" fill="#1a171b"/>
    <path d="M32.407,6.3a.727.727,0,0,0,.728-.727.724.724,0,0,0-.213-.514.752.752,0,0,0-1.028,0,.724.724,0,0,0-.213.514.743.743,0,0,0,.213.514A.728.728,0,0,0,32.407,6.3Z" fill="#1a171b"/>
    <path d="M43.155,36.968V30.423a3.266,3.266,0,0,0-2.948-3.24A11.613,11.613,0,0,0,28.634,16.268H19.367A11.614,11.614,0,0,0,7.793,27.183a3.265,3.265,0,0,0-2.944,3.24v6.545a3.277,3.277,0,0,0,3.273,3.273h.727a3.276,3.276,0,0,0,3.273-3.273V30.423a3.266,3.266,0,0,0-2.874-3.232,10.158,10.158,0,0,1,10.119-9.467h9.267a10.158,10.158,0,0,1,10.119,9.468,3.266,3.266,0,0,0-2.87,3.232v6.545a3.266,3.266,0,0,0,2.87,3.232,7.04,7.04,0,0,1-7,6.345H28.1A3.142,3.142,0,0,0,25.456,41.7H22.547a3.152,3.152,0,0,0,0,6.3h9.212a8.492,8.492,0,0,0,8.45-7.792A3.265,3.265,0,0,0,43.155,36.968ZM10.667,30.423v6.545a1.82,1.82,0,0,1-1.818,1.818H8.122A1.82,1.82,0,0,1,6.3,36.968V30.423a1.819,1.819,0,0,1,1.818-1.818h.727A1.82,1.82,0,0,1,10.667,30.423ZM25.455,46.545h-2.91a1.7,1.7,0,0,1,0-3.394h2.909a1.7,1.7,0,0,1,0,3.394Zm13.7-7.758a1.82,1.82,0,0,1-1.818-1.818V30.424a1.82,1.82,0,0,1,1.818-1.818h.728A1.819,1.819,0,0,1,41.7,30.424v6.545a1.819,1.819,0,0,1-1.817,1.818Z" fill="#1a171b"/>
    <path d="M29.527,34.212a.729.729,0,0,0,.214-.515.728.728,0,0,0-1.242-.514.713.713,0,0,0-.213.514.727.727,0,0,0,.728.728A.746.746,0,0,0,29.527,34.212Z" fill="#1a171b"/>
    <path d="M24.727,33.7a.727.727,0,1,0-.727.728A.726.726,0,0,0,24.727,33.7Z" fill="#1a171b"/>
    <path d="M19.714,33.7a.739.739,0,0,0-.2-.514.763.763,0,0,0-1.037,0,.752.752,0,0,0-.214.514.731.731,0,0,0,.214.515.748.748,0,0,0,.514.213.712.712,0,0,0,.727-.728Z" fill="#1a171b"/>
  </g>
</svg>
